<svg xmlns="http://www.w3.org/2000/svg" xmlns:xlink="http://www.w3.org/1999/xlink" id="svg2" width="22" height="22" version="1.0"><defs id="defs4"><linearGradient id="linearGradient2406" x1="63.397" x2="63.397" y1="-12.489" y2="5.468" gradientTransform="matrix(1.0863 0 0 1.0862 -56.567 14.814)" gradientUnits="userSpaceOnUse"><stop id="stop4875" offset="0" style="stop-color:#fff"/><stop id="stop4877" offset="1" style="stop-color:#fff;stop-opacity:0"/></linearGradient><linearGradient id="linearGradient2411" x1="18.379" x2="18.379" y1="44.98" y2="3.082" gradientTransform="matrix(.51604 0 0 .51604 -1.385 -1.385)" gradientUnits="userSpaceOnUse"><stop id="stop2492" offset="0" style="stop-color:#791235"/><stop id="stop2494" offset="1" style="stop-color:#dd3b27"/></linearGradient><radialGradient id="radialGradient2409" cx="23.896" cy="3.99" r="20.397" gradientTransform="matrix(0 1.2316 -1.6257 0 17.487 -29.721)" gradientUnits="userSpaceOnUse"><stop id="stop3244" offset="0" style="stop-color:#f8b17e"/><stop id="stop3246" offset=".262" style="stop-color:#e35d4f"/><stop id="stop3248" offset=".661" style="stop-color:#c6262e"/><stop id="stop3250" offset="1" style="stop-color:#690b54"/></radialGradient></defs><g id="layer1"><g id="g2502"><path id="path2555" d="m11 0.50178c-5.7926 0-10.498 4.7056-10.498 10.498-0.00022 5.793 4.7054 10.498 10.498 10.498 5.793 0 10.498-4.705 10.498-10.498 0-5.7926-4.705-10.498-10.498-10.498z" style="stroke-linejoin:round;stroke:url(#linearGradient2411);stroke-linecap:round;stroke-width:1.0037;fill:url(#radialGradient2409)"/><path id="path2463" d="m20.5 11c0 5.247-4.254 9.5-9.5 9.5-5.2466 0-9.5-4.254-9.5-9.5 0-5.247 4.2534-9.5 9.5-9.5 5.246 0 9.5 4.253 9.5 9.5z" style="opacity:.4;stroke:url(#linearGradient2406);fill:none"/></g><g id="g2478" transform="translate(-25.73 .027876)"><path id="path3243" d="m33.308 4.9721l-1.578 1.5781 3.255 3.2392c0.1 0.1013 0.1 0.2646 0 0.3656l-3.255 3.239 1.578 1.578 3.239-3.239c0.101-0.1 0.264-0.1 0.365 0l3.24 3.239 1.578-1.578-3.24-3.239c-0.1-0.101-0.1-0.2643 0-0.3656l3.24-3.2392-1.578-1.5781-3.24 3.2392c-0.101 0.1-0.264 0.1-0.365 0l-3.239-3.2392z" style="opacity:.2;fill-rule:evenodd"/><path id="path3256" d="m33.308 5.9721l-1.578 1.5781 3.255 3.2388c0.1 0.102 0.1 0.265 0 0.366l-3.255 3.239 1.578 1.578 3.239-3.239c0.101-0.1 0.264-0.1 0.365 0l3.24 3.239 1.578-1.578-3.24-3.239c-0.1-0.101-0.1-0.264 0-0.366l3.24-3.2388-1.578-1.5781-3.24 3.2392c-0.101 0.1-0.264 0.1-0.365 0l-3.239-3.2392z" style="fill:#fff;fill-rule:evenodd"/></g></g></svg>