<svg xmlns="http://www.w3.org/2000/svg" xmlns:xlink="http://www.w3.org/1999/xlink" id="svg2" width="22" height="22" version="1.0"><defs id="defs4"><linearGradient id="linearGradient2406" x1="63.397" x2="63.397" y1="-12.489" y2="5.468" gradientTransform="matrix(1.0863 0 0 1.0862 -56.567 14.814)" gradientUnits="userSpaceOnUse"><stop id="stop4875" offset="0" style="stop-color:#fff"/><stop id="stop4877" offset="1" style="stop-color:#fff;stop-opacity:0"/></linearGradient><linearGradient id="linearGradient2411" x1="18.379" x2="18.379" y1="44.98" y2="3.082" gradientTransform="matrix(.51604 0 0 .51604 -1.385 -1.385)" gradientUnits="userSpaceOnUse"><stop id="stop2492" offset="0" style="stop-color:#791235"/><stop id="stop2494" offset="1" style="stop-color:#dd3b27"/></linearGradient><radialGradient id="radialGradient2409" cx="23.896" cy="3.99" r="20.397" gradientTransform="matrix(0 1.2316 -1.6257 0 17.487 -29.721)" gradientUnits="userSpaceOnUse"><stop id="stop3244" offset="0" style="stop-color:#f8b17e"/><stop id="stop3246" offset=".262" style="stop-color:#e35d4f"/><stop id="stop3248" offset=".661" style="stop-color:#c6262e"/><stop id="stop3250" offset="1" style="stop-color:#690b54"/></radialGradient></defs><g id="layer1"><g id="g2505"><path id="path2555" d="m11 0.50178c-5.7926 0-10.498 4.7056-10.498 10.498-0.00022 5.793 4.7054 10.498 10.498 10.498 5.793 0 10.498-4.705 10.498-10.498 0-5.7926-4.705-10.498-10.498-10.498z" style="stroke-linejoin:round;stroke:url(#linearGradient2411);stroke-linecap:round;stroke-width:1.0037;fill:url(#radialGradient2409)"/><path id="path2463" d="m20.5 11c0 5.247-4.254 9.5-9.5 9.5-5.2466 0-9.5-4.254-9.5-9.5 0-5.247 4.2534-9.5 9.5-9.5 5.246 0 9.5 4.253 9.5 9.5z" style="opacity:.4;stroke:url(#linearGradient2406);fill:none"/></g><g id="g2481" transform="translate(34.813 -.11376)"><path id="path3295" d="m-25.214 4.4004c0.332 2.8105 0.712 5.6016 0.995 8.4226h0.901c0.235-2.709 0.613-5.4022 0.886-8.1083 0.139-0.6408-0.241-1.4016-1.022-1.5572-0.771-0.1955-1.633 0.2886-1.735 0.98-0.017 0.0868-0.025 0.1749-0.025 0.2629zm-0.098 11.427c-0.036 0.836 1.026 1.492 1.933 1.227 0.878-0.194 1.341-1.151 0.891-1.831-0.403-0.703-1.585-0.935-2.264-0.397-0.344 0.245-0.572 0.61-0.56 1.001z" style="opacity:.2"/><path id="text2315" d="m-25.214 5.4004c0.332 2.8105 0.712 5.6016 0.995 8.4226h0.901c0.235-2.709 0.613-5.4022 0.886-8.1083 0.139-0.6408-0.241-1.4016-1.022-1.5572-0.771-0.1955-1.633 0.2886-1.735 0.98-0.017 0.0868-0.025 0.1749-0.025 0.2629zm-0.098 11.427c-0.036 0.836 1.026 1.492 1.933 1.227 0.878-0.194 1.341-1.151 0.891-1.831-0.403-0.703-1.585-0.935-2.264-0.397-0.344 0.245-0.572 0.61-0.56 1.001z" style="fill:#fff"/></g></g></svg>