<svg xmlns="http://www.w3.org/2000/svg" xmlns:svg="http://www.w3.org/2000/svg" xmlns:xlink="http://www.w3.org/1999/xlink" id="svg2449" width="22" height="22" version="1.0"><defs id="defs2451"><linearGradient id="linearGradient3827"><stop id="stop3835" offset="0" style="stop-color:#6396cd;stop-opacity:1"/><stop id="stop3831" offset="1" style="stop-color:#7ba7d5;stop-opacity:0"/></linearGradient><linearGradient id="linearGradient3803"><stop id="stop3805" offset="0" style="stop-color:#538ec6;stop-opacity:1"/><stop id="stop3807" offset="1" style="stop-color:#538ec6;stop-opacity:0"/></linearGradient><linearGradient id="linearGradient3533"><stop id="stop3535" offset="0" style="stop-color:#93b9dd;stop-opacity:1"/><stop id="stop3545" offset="1" style="stop-color:#6396cd;stop-opacity:1"/></linearGradient><linearGradient id="linearGradient5584" x1="108.979" x2="111.161" y1="185.101" y2="193.852" gradientTransform="matrix(1.0000213,0,0,0.99999945,-103.00376,-175.00295)" gradientUnits="userSpaceOnUse" xlink:href="#linearGradient5578"/><linearGradient id="linearGradient5578"><stop id="stop5580" offset="0" style="stop-color:#fff;stop-opacity:1"/><stop id="stop5582" offset="1" style="stop-color:#fff;stop-opacity:0"/></linearGradient><linearGradient id="linearGradient5554" x1="113.667" x2="112.518" y1="189.974" y2="187" gradientTransform="matrix(1.0000213,0,0,0.99999945,-103.00376,-175.00295)" gradientUnits="userSpaceOnUse" xlink:href="#linearGradient5548"/><linearGradient id="linearGradient5548"><stop id="stop5550" offset="0" style="stop-color:#fff;stop-opacity:1"/><stop id="stop5552" offset="1" style="stop-color:#fff;stop-opacity:0"/></linearGradient><linearGradient id="linearGradient5374" x1="116.493" x2="110.65" y1="198.968" y2="177.162" gradientUnits="userSpaceOnUse" xlink:href="#linearGradient4022-6-5-6"/><linearGradient id="linearGradient4022-6-5-6"><stop id="stop4024-1-5-3" offset="0" style="stop-color:#555753;stop-opacity:1"/><stop id="stop4026-2-3-1" offset="1" style="stop-color:#babdb6;stop-opacity:1"/></linearGradient><linearGradient id="linearGradient3809" x1="114.865" x2="119.532" y1="192.532" y2="187.865" gradientUnits="userSpaceOnUse" xlink:href="#linearGradient3803"/><linearGradient id="linearGradient3817" x1="109" x2="113" y1="177" y2="196" gradientUnits="userSpaceOnUse" xlink:href="#linearGradient3533"/><linearGradient id="linearGradient3833" x1="113.932" x2="120.465" y1="192.532" y2="189.732" gradientUnits="userSpaceOnUse" xlink:href="#linearGradient3827"/><linearGradient id="linearGradient3883" x1="109" x2="112.117" y1="177" y2="188.794" gradientUnits="userSpaceOnUse" xlink:href="#linearGradient3533"/><linearGradient id="linearGradient3885" x1="109" x2="113" y1="177" y2="196" gradientUnits="userSpaceOnUse" xlink:href="#linearGradient3533"/></defs><g id="g5364" transform="matrix(1.0000213,0,0,0.99999945,-103.00376,-175.00295)" style="stroke:url(#linearGradient5374);display:inline;enable-background:new"><path id="path3159-8" d="m 112.44761,192.97817 a 7,7 0 1 1 5.7872,-11.6254" transform="matrix(1.0714286,0,0,1.0714286,-7.0699096,-12.284198)" style="color:#000;fill:none;stroke:#538ec6;stroke-width:4.66666651;stroke-linecap:round;stroke-linejoin:round;stroke-miterlimit:4;stroke-opacity:1;stroke-dasharray:none;stroke-dashoffset:0;marker:none;visibility:visible;display:inline;overflow:visible;enable-background:accumulate"/><path id="path3957-8" d="m 121,179 0,0 0,5 -5,0" style="fill:none;stroke:#538ec6;stroke-width:4;stroke-linecap:round;stroke-linejoin:round;stroke-miterlimit:4;stroke-opacity:1;stroke-dasharray:none;display:inline;enable-background:new"/><path id="path3801" d="m 119.19847,189.25253 a 7,7 0 0 1 -9.49902,2.92051" transform="matrix(1.0714286,0,0,1.0714286,-7.0699096,-12.284198)" style="color:#000;fill:none;stroke:url(#linearGradient3809);stroke-width:4.66666651;stroke-linecap:round;stroke-linejoin:round;stroke-miterlimit:4;stroke-opacity:1;stroke-dasharray:none;stroke-dashoffset:0;marker:none;visibility:visible;display:inline;overflow:visible;enable-background:accumulate"/></g><g id="g5315" transform="matrix(1.0000213,0,0,0.99999945,-103.00376,-175.00295)" style="fill-opacity:1;stroke:url(#linearGradient3817);stroke-opacity:1;display:inline;enable-background:new"><path id="path3159" d="m 112.17502,192.95122 a 7,7 0 1 1 6.05979,-11.59845" transform="matrix(1.0714286,0,0,1.0714286,-7.0699104,-12.284198)" style="color:#000;fill:none;stroke:url(#linearGradient3883);stroke-width:2.79999995;stroke-linecap:round;stroke-linejoin:round;stroke-miterlimit:4;stroke-opacity:1;stroke-dasharray:none;stroke-dashoffset:0;marker:none;visibility:visible;display:inline;overflow:visible;enable-background:accumulate"/><path id="path3957-7-3" d="m 121,179 0,0 0,5 -5,0" style="fill:none;stroke:url(#linearGradient3885);stroke-width:2;stroke-linecap:round;stroke-linejoin:miter;stroke-miterlimit:4;stroke-opacity:1;stroke-dasharray:none;display:inline;enable-background:new"/><path id="path3823" d="m 119.19728,189.25479 a 7,7 0 0 1 -10.70311,2.10222" transform="matrix(1.0714286,0,0,1.0714286,-7.0699104,-12.284198)" style="color:#000;fill:none;stroke:url(#linearGradient3833);stroke-width:2.79999995;stroke-linecap:round;stroke-linejoin:round;stroke-miterlimit:4;stroke-opacity:1;stroke-dasharray:none;stroke-dashoffset:0;marker:none;visibility:visible;display:inline;overflow:visible;enable-background:accumulate"/></g><path id="path3159-1" d="m 16.748792,14.996954 c -0.340462,0.647683 -0.77176,1.215015 -1.270184,1.6936 -1.954963,1.877154 -4.939072,2.390862 -7.4800025,1.056399 C 4.8098576,16.072264 3.5738312,12.185636 5.2485469,8.9969583 6.9232726,5.8082797 10.809995,4.5722804 13.998734,6.2469594 c 0.614773,0.3228699 1.174775,0.7544396 1.656285,1.2499994 m 0.843768,-1.968749 C 16.023097,5.1240301 15.492676,4.7579403 14.936254,4.4657104 13.899832,3.9213907 12.817699,3.6191709 11.717435,3.5282109 c -0.206294,-0.0171 -0.415259,-0.0323 -0.625013,-0.0312 -0.209756,0.001 -0.42031,0.0182 -0.625014,0.0312 C 7.601587,3.7101908 4.8961094,5.3389099 3.467259,8.0594585 1.2899527,12.205056 2.9153881,17.350941 7.0610855,19.528202 c 3.2323445,1.697581 7.0727905,1.083478 9.6400985,-1.234453 0.725431,-0.654965 1.348937,-1.446112 1.828896,-2.359295" style="font-size:medium;font-style:normal;font-variant:normal;font-weight:400;font-stretch:normal;text-indent:0;text-align:start;text-decoration:none;line-height:normal;letter-spacing:normal;word-spacing:normal;text-transform:none;direction:ltr;block-progression:tb;writing-mode:lr-tb;text-anchor:start;opacity:.15;color:#000;fill:none;stroke:#fff;stroke-width:1.00001037;stroke-linecap:round;stroke-miterlimit:4;stroke-dasharray:none;marker:none;visibility:visible;display:inline;overflow:visible;enable-background:accumulate;font-family:Abandoned Bitplane;-inkscape-font-specification:Abandoned Bitplane"/><path id="path3957-7-5-1" d="m 15.498766,8.4969582 -2.500054,0 c -0.264165,-0.004 -0.50713,0.2358199 -0.50713,0.5000001 m 5.413485,-5.4999974 c -0.229205,0.0437 -0.410369,0.2666999 -0.406259,0.4999998 l 0,2.4999986" style="font-size:medium;font-style:normal;font-variant:normal;font-weight:400;font-stretch:normal;text-indent:0;text-align:start;text-decoration:none;line-height:normal;letter-spacing:normal;word-spacing:normal;text-transform:none;direction:ltr;block-progression:tb;writing-mode:lr-tb;text-anchor:start;opacity:.3;color:#000;fill:none;stroke:#fff;stroke-width:1.00001037;stroke-linecap:round;marker:none;visibility:visible;display:inline;overflow:visible;enable-background:new;font-family:Abandoned Bitplane;-inkscape-font-specification:Abandoned Bitplane"/><path id="path3159-1-7" d="M 14.07866,17.713355 C 12.251948,18.70353 9.98927,18.792424 7.9986055,17.746955 4.8098576,16.072266 3.5738312,12.185638 5.2485469,8.9969603 6.9232726,5.8082817 10.809995,4.5722824 13.998734,6.2469614 c 0.614773,0.3228699 1.174775,0.7544396 1.656285,1.2499994" style="font-size:medium;font-style:normal;font-variant:normal;font-weight:400;font-stretch:normal;text-indent:0;text-align:start;text-decoration:none;line-height:normal;letter-spacing:normal;word-spacing:normal;text-transform:none;direction:ltr;block-progression:tb;writing-mode:lr-tb;text-anchor:start;opacity:.23999999;color:#000;fill:none;stroke:url(#linearGradient5554);stroke-width:1.00001037;stroke-linecap:round;stroke-miterlimit:4;stroke-dasharray:none;marker:none;visibility:visible;display:inline;overflow:visible;enable-background:accumulate;font-family:Abandoned Bitplane;-inkscape-font-specification:Abandoned Bitplane"/><path id="path3159-1-9" d="M 16.498787,5.5282098 C 16.023097,5.1240301 15.492676,4.7579403 14.936254,4.4657104 13.899832,3.9213907 12.817699,3.6191709 11.717435,3.5282109 c -0.206294,-0.0171 -0.415259,-0.0323 -0.625013,-0.0312 -0.209756,0.001 -0.42031,0.0182 -0.625014,0.0312 C 7.601587,3.7101908 4.8961094,5.3389099 3.467259,8.0594585 1.2899527,12.205056 2.9153872,17.350943 7.0610855,19.528202" style="font-size:medium;font-style:normal;font-variant:normal;font-weight:400;font-stretch:normal;text-indent:0;text-align:start;text-decoration:none;line-height:normal;letter-spacing:normal;word-spacing:normal;text-transform:none;direction:ltr;block-progression:tb;writing-mode:lr-tb;text-anchor:start;opacity:.23999999;color:#000;fill:none;stroke:url(#linearGradient5584);stroke-width:1.00001037;stroke-linecap:round;stroke-miterlimit:4;stroke-dasharray:none;marker:none;visibility:visible;display:inline;overflow:visible;enable-background:accumulate;font-family:Abandoned Bitplane;-inkscape-font-specification:Abandoned Bitplane"/></svg>