<svg xmlns="http://www.w3.org/2000/svg" xmlns:xlink="http://www.w3.org/1999/xlink" id="svg2509" width="16" height="16" version="1.0"><defs id="defs2511"><linearGradient id="linearGradient2406" x1="63.397" x2="63.397" y1="-12.489" y2="5.468" gradientTransform="matrix(.74324 0 0 .74322 -38.23 10.609)" gradientUnits="userSpaceOnUse"><stop id="stop4875" offset="0" style="stop-color:#fff"/><stop id="stop4877" offset="1" style="stop-color:#fff;stop-opacity:0"/></linearGradient><linearGradient id="linearGradient2411" x1="18.379" x2="18.379" y1="44.98" y2="3.082" gradientTransform="matrix(.36857 0 0 .36857 -.84577 -.84577)" gradientUnits="userSpaceOnUse"><stop id="stop2492" offset="0" style="stop-color:#791235"/><stop id="stop2494" offset="1" style="stop-color:#dd3b27"/></linearGradient><radialGradient id="radialGradient2409" cx="23.896" cy="3.99" r="20.397" gradientTransform="matrix(0 .87966 -1.1611 0 12.633 -21.084)" gradientUnits="userSpaceOnUse"><stop id="stop3244" offset="0" style="stop-color:#f8b17e"/><stop id="stop3246" offset=".262" style="stop-color:#e35d4f"/><stop id="stop3248" offset=".661" style="stop-color:#c6262e"/><stop id="stop3250" offset="1" style="stop-color:#690b54"/></radialGradient></defs><g id="layer1"><g id="g2533"><path id="path2555" d="m8 0.50183c-4.1372 0-7.4982 3.3609-7.4982 7.4982 0 4.1372 3.3609 7.4982 7.4982 7.4982 4.1372 0 7.4982-3.3609 7.4982-7.4982 0-4.1372-3.3609-7.4982-7.4982-7.4982z" style="stroke-linejoin:round;stroke:url(#linearGradient2411);stroke-linecap:round;stroke-width:1.0037;fill:url(#radialGradient2409)"/><path id="path2463" d="m14.5 7.9998c0 3.5902-2.91 6.5002-6.4999 6.5002s-6.5001-2.91-6.5001-6.5002c0-3.5898 2.9102-6.4998 6.5001-6.4998 3.5896 0 6.4999 2.91 6.4999 6.4998z" style="opacity:.4;stroke:url(#linearGradient2406);fill:none"/></g><path id="text2315" d="m7.0864 3.7008c0.2165 2.1148 0.46449 4.2151 0.64879 6.3381h0.58815c0.15287-2.0388 0.39944-4.0654 0.57731-6.1017 0.090667-0.48217-0.15689-1.0547-0.66605-1.1718-0.50313-0.1471-1.0652 0.21716-1.1321 0.73749-0.011095 0.065318-0.016045 0.13161-0.016043 0.19784zm-0.064166 8.5982c-0.022894 0.6295 0.66976 1.123 1.2611 0.92339 0.5728-0.14619 0.87451-0.86614 0.58094-1.3779-0.26279-0.52901-1.0334-0.70331-1.4767-0.29844-0.22408 0.1841-0.3726 0.45893-0.36539 0.75294v-0.000001z" style="fill:#fff"/></g></svg>